<?xml version="1.0" encoding="UTF-8"?>
<svg width="24px" height="24px" viewBox="0 0 24 24" version="1.1" xmlns="http://www.w3.org/2000/svg" xmlns:xlink="http://www.w3.org/1999/xlink">
    <title>Shape</title>
    <g id="Page-1" stroke="none" stroke-width="1" fill="none" fill-rule="evenodd">
        <g id="Navbar" transform="translate(-191, -16)" fill="#FFFFFF">
            <path d="M210.8649,33.2 C210.7357,33.0799 210.6376,32.9553 210.6044,32.84 C210.4739,32.383 210.646,31.0548 210.9048,30.6401 C211.1628,30.2239 210.877,28.975 210.7926,28.7683 C210.7058,28.5604 210.6767,28.2906 210.3805,28.3724 C210.0826,28.4558 209.4132,28.4247 208.8078,28.3002 C208.2008,28.1768 207.6723,27.5921 207.5514,26.9328 C207.416,26.1937 207.416,25.47567 207.5888,25.02547 C207.782,24.5194 208.2577,24.32783 208.6932,24.08917 C208.8938,23.97981 209.8644,23.82496 209.8279,23.358 C209.6023,22.92776 207.5418,23.41707 207.4592,22.74856 C207.3756,22.07886 207.3461,21.74281 207.6075,21.20401 C207.8817,20.64207 207.5664,20.7171 207.4907,20.03583 C207.4804,19.93884 207.6952,19.6882 207.7122,19.6 C208.4231,20.0043 209.0908,20.48762 209.6899,21.06313 C211.5667,22.8667 212.6,25.26454 212.6,27.8152 C212.6,29.7669 211.9905,31.6255 210.8649,33.2 Z M206.4437,32.8971 C206.034,33.5476 206.1325,34.0268 205.1978,34.5241 C204.6772,34.8014 204.3068,34.88 204.0314,35.6248 C203.7548,36.368 203.2962,36.3418 202.1513,36.9456 C201.0047,37.5509 200.54928,36.9456 200.45589,36.4813 C200.36289,36.017 200.64545,34.9203 200.64545,34.9203 C200.64545,34.9203 200.75752,34.5927 199.94521,34.2227 C197.89098,33.2872 199.66344,30.0029 199.66344,30.0029 C199.19926,29.4596 198.02053,28.394 196.37484,28.045 C194.80148,27.7121 194.3528,26.7887 193.8,25.867 C194.20457,24.16055 195.05464,22.59235 196.30967,21.31877 C198.10479,19.49786 200.49086,18.4 203.0315,18.4 C203.0315,18.4 203.8883,18.4 204.6971,18.6124 C203.9575,19.42653 203.1301,20.24952 202.5153,20.47643 C201.4085,20.88752 200.89543,21.56099 200.89066,22.27839 C200.88827,22.64999 201.6577,23.32345 201.6577,24.17547 C201.6577,25.62356 200.59498,25.65702 200.47099,25.04682 C200.19121,23.66281 199.12097,24.0203 197.83931,24.15894 C196.55567,24.29879 195.77793,25.81017 196.60216,26.4147 C197.42799,27.0193 197.38547,26.2237 197.703,25.99677 C198.01894,25.76946 198.24229,25.67959 198.48233,25.99677 C198.72038,26.314 199.23662,26.4865 199.18694,27.1374 C199.14363,27.7879 199.00453,28.3448 199.87685,28.3448 C200.74799,28.3448 200.77819,28.5391 201.331,28.8176 C201.8782,29.0965 202.3965,29.0441 202.8531,29.1376 C203.3117,29.2299 203.9126,30.1279 203.9126,30.1279 C205.2125,30.5539 205.6401,30.728 205.999,31.0907 C206.3567,31.4534 206.8582,32.2462 206.4437,32.8971 Z M202.9986,16 L202.9954,16 L202.9922,16 C198.23149,16 194.13019,18.7812 192.19038,22.8 C191.430136,24.3748 191,26.1344 191,28 C190.9992,34.6264 196.3653,40 202.9938,40 L202.997,40 L203.0002,40 C209.6263,40 215.0008,34.6264 215,28.0016 C215.0008,21.314 209.5467,16 202.9986,16 Z" id="Shape"></path>
        </g>
    </g>
</svg>